<?xml version="1.0" encoding="UTF-8"?>
<svg id="_レイヤー_1" data-name="レイヤー_1" xmlns="http://www.w3.org/2000/svg" version="1.1" viewBox="0 0 1440 320">
  <!-- Generator: Adobe Illustrator 29.2.1, SVG Export Plug-In . SVG Version: 2.1.0 Build 116)  -->
  <defs>
    <style>
      .st0 {
        fill: #fff2b2;
      }
    </style>
  </defs>
  <path class="st0" d="M0,96l80-10.7c80-10.3,240-32.3,400-5.3s320,101,480,112,320-43,400-69.3l80-26.7V0H0v96Z"/>
  <circle class="st0" cx="165.6" cy="137.4" r="65.6"/>
  <circle class="st0" cx="265.5" cy="226" r="17.5"/>
  <circle class="st0" cx="313.7" cy="143.3" r="30.7"/>
  <path class="st0" d="M206.7,77.8c0,9.7,27.2,40.3,17.6,40.3s-52.6-30.6-52.6-40.3,53.1-17.6,62.8-17.6-27.8,7.9-27.8,17.6Z"/>
  <path class="st0" d="M119.4,91.1c1.6,12.8-29.7,58-16.8,56.4,12.8-1.6,64.9-49.3,63.3-62.1-1.6-12.8-73.5-14.7-86.3-13.2-12.8,1.6,38.2,6,39.8,18.8Z"/>
  <circle class="st0" cx="843" cy="185.4" r="33.4"/>
  <circle class="st0" cx="959" cy="259.9" r="41.1"/>
  <circle class="st0" cx="1427" cy="179.4" r="41.1"/>
  <circle class="st0" cx="1095" cy="211.4" r="14.6"/>
</svg>